<?xml version="1.0" encoding="UTF-8" standalone="no"?>
<!DOCTYPE svg PUBLIC "-//W3C//DTD SVG 1.1//EN" "http://www.w3.org/Graphics/SVG/1.1/DTD/svg11.dtd">
<!-- Generated by graphviz version 2.40.1 (20161225.0304)
 -->
<!-- Title: TD Pages: 1 -->
<svg xmlns="http://www.w3.org/2000/svg" xmlns:xlink="http://www.w3.org/1999/xlink" width="599pt" height="613pt" viewBox="0.00 0.00 598.50 612.90">
  <g id="graph0" class="graph" transform="scale(1 1) rotate(0) translate(4 608.9)">
    <title>TD</title>
    <g id="a_graph0">
      <a xlink:title="Click the boxes for further information">
        <polygon fill="#ffffff" stroke="transparent" points="-4,4 -4,-608.9 594.5,-608.9 594.5,4 -4,4"/>
      </a>
    </g>
    <!-- 3&#45;&gt;4 -->
    <!-- 3&#45;&gt;5 -->
    <!-- 4&#45;&gt;5 -->
    <g id="edge3" class="edge">
      <title>4-&gt;5</title>
      <path fill="none" stroke="#000000" d="M302.821,-468C311.202,-468 319.6641,-468 328.0915,-468"/>
      <polygon fill="#000000" stroke="#000000" points="328.346,-471.5001 338.346,-468 328.3459,-464.5001 328.346,-471.5001"/>
    </g>
    <!-- 4&#45;&gt;6 -->
    <g id="edge4" class="edge">
      <title>4-&gt;6</title>
      <path fill="none" stroke="#000000" d="M176.5,-395.5289C176.5,-374.1057 176.5,-351.8778 176.5,-334.9293"/>
      <polygon fill="#000000" stroke="#000000" points="180.0001,-334.6155 176.5,-324.6156 173.0001,-334.6156 180.0001,-334.6155"/>
    </g>
    <!-- 5&#45;&gt;7 -->
    <!-- 6&#45;&gt;7 -->
    <g id="edge5" class="edge">
      <title>6-&gt;7</title>
      <path fill="none" stroke="#000000" d="M302.821,-306C311.202,-306 319.6641,-306 328.0915,-306"/>
      <polygon fill="#000000" stroke="#000000" points="328.346,-309.5001 338.346,-306 328.3459,-302.5001 328.346,-309.5001"/>
    </g>
    <!-- 6&#45;&gt;8 -->
    <g id="edge6" class="edge">
      <title>6-&gt;8</title>
      <path fill="none" stroke="#000000" d="M176.5,-287.4582C176.5,-279.9583 176.5,-271.1245 176.5,-262.8217"/>
      <polygon fill="#000000" stroke="#000000" points="180.0001,-262.7292 176.5,-252.7292 173.0001,-262.7292 180.0001,-262.7292"/>
    </g>
    <!-- 7&#45;&gt;9 -->
    <!-- 8&#45;&gt;9 -->
    <g id="edge7" class="edge">
      <title>8-&gt;9</title>
      <path fill="none" stroke="#000000" d="M302.821,-234C311.202,-234 319.6641,-234 328.0915,-234"/>
      <polygon fill="#000000" stroke="#000000" points="328.346,-237.5001 338.346,-234 328.3459,-230.5001 328.346,-237.5001"/>
    </g>
    <!-- 8&#45;&gt;10 -->
    <g id="edge8" class="edge">
      <title>8-&gt;10</title>
      <path fill="none" stroke="#000000" d="M176.5,-215.6198C176.5,-205.5742 176.5,-192.9094 176.5,-181.6023"/>
      <polygon fill="#000000" stroke="#000000" points="180.0001,-181.3074 176.5,-171.3074 173.0001,-181.3074 180.0001,-181.3074"/>
    </g>
    <!-- 9&#45;&gt;11 -->
    <!-- 10&#45;&gt;12 -->
    <g id="edge10" class="edge">
      <title>10-&gt;12</title>
      <path fill="none" stroke="#000000" d="M176.5,-134.461C176.5,-115.7194 176.5,-86.4961 176.5,-64.7483"/>
      <polygon fill="#000000" stroke="#000000" points="180.0001,-64.4522 176.5,-54.4523 173.0001,-64.4523 180.0001,-64.4522"/>
    </g>
    <!-- 10&#45;&gt;C -->
    <g id="edge9" class="edge">
      <title>10-&gt;C</title>
      <path fill="none" stroke="#000000" d="M302.821,-153C311.202,-153 319.6641,-153 328.0915,-153"/>
      <polygon fill="#000000" stroke="#000000" points="328.346,-156.5001 338.346,-153 328.3459,-149.5001 328.346,-156.5001"/>
    </g>
    <!-- identification -->
    <g id="node1" class="node">
      <title>identification</title>
      <g id="a_node1">
        <a xlink:title="Blue identification box">
          <path fill="#bcd2ee" stroke="#bcd2ee" d="M19.3333,-540C19.3333,-540 9.6667,-540 9.6667,-540 4.8333,-540 0,-535.1667 0,-530.3333 0,-530.3333 0,-405.6667 0,-405.6667 0,-400.8333 4.8333,-396 9.6667,-396 9.6667,-396 19.3333,-396 19.3333,-396 24.1667,-396 29,-400.8333 29,-405.6667 29,-405.6667 29,-530.3333 29,-530.3333 29,-535.1667 24.1667,-540 19.3333,-540"/>
          <text text-anchor="middle" x="464.4" y="16.5" font-family="Helvetica,sans-Serif" font-size="12.00" fill="#000000" transform="rotate(-90)">Identification</text>
        </a>
      </g>
    </g>
    <!-- screening -->
    <g id="node2" class="node">
      <title>screening</title>
      <g id="a_node2">
        <a xlink:title="Blue screening box">
          <path fill="#bcd2ee" stroke="#bcd2ee" d="M19.3333,-324C19.3333,-324 9.6667,-324 9.6667,-324 4.8333,-324 0,-319.1667 0,-314.3333 0,-314.3333 0,-135.6667 0,-135.6667 0,-130.8333 4.8333,-126 9.6667,-126 9.6667,-126 19.3333,-126 19.3333,-126 24.1667,-126 29,-130.8333 29,-135.6667 29,-135.6667 29,-314.3333 29,-314.3333 29,-319.1667 24.1667,-324 19.3333,-324"/>
          <text text-anchor="middle" x="221.4" y="16.5" font-family="Helvetica,sans-Serif" font-size="12.00" fill="#000000" transform="rotate(-90)">Screening</text>
        </a>
      </g>
    </g>
    <!-- included -->
    <g id="node3" class="node">
      <title>included</title>
      <g id="a_node3">
        <a xlink:title="Blue included box">
          <path fill="#bcd2ee" stroke="#bcd2ee" d="M19.3333,-72C19.3333,-72 9.6667,-72 9.6667,-72 4.8333,-72 0,-67.1667 0,-62.3333 0,-62.3333 0,-9.6667 0,-9.6667 0,-4.8333 4.8333,0 9.6667,0 9.6667,0 19.3333,0 19.3333,0 24.1667,0 29,-4.8333 29,-9.6667 29,-9.6667 29,-62.3333 29,-62.3333 29,-67.1667 24.1667,-72 19.3333,-72"/>
          <text text-anchor="middle" x="32.4" y="16.5" font-family="Helvetica,sans-Serif" font-size="12.00" fill="#000000" transform="rotate(-90)">Included</text>
        </a>
      </g>
    </g>
    <!-- 3 -->
    <g id="node4" class="node">
      <title>3</title>
      <g id="a_node4">
        <a xlink:title="Yellow title box; Identification of new studies via databases and registers">
          <path fill="#ffc125" stroke="#ffc125" d="M580.8333,-604.9C580.8333,-604.9 60.1667,-604.9 60.1667,-604.9 55.3333,-604.9 50.5,-600.0667 50.5,-595.2333 50.5,-595.2333 50.5,-585.5667 50.5,-585.5667 50.5,-580.7333 55.3333,-575.9 60.1667,-575.9 60.1667,-575.9 580.8333,-575.9 580.8333,-575.9 585.6667,-575.9 590.5,-580.7333 590.5,-585.5667 590.5,-585.5667 590.5,-595.2333 590.5,-595.2333 590.5,-600.0667 585.6667,-604.9 580.8333,-604.9"/>
          <text text-anchor="middle" x="320.5" y="-586.8" font-family="Helvetica,sans-Serif" font-size="12.00" fill="#000000">Identification of new studies via databases and registers</text>
        </a>
      </g>
    </g>
    <!-- 4 -->
    <g id="node5" class="node">
      <title>4</title>
      <g id="a_node5">
        <a xlink:title="Records identified from: Databases and Registers">
          <polygon fill="none" stroke="#000000" points="302.5,-540 50.5,-540 50.5,-396 302.5,-396 302.5,-540"/>
          <text text-anchor="middle" x="176.5" y="-514.8" font-family="Helvetica,sans-Serif" font-size="12.00" fill="#000000">Records identified from:</text>
          <text text-anchor="middle" x="176.5" y="-500.4" font-family="Helvetica,sans-Serif" font-size="12.00" fill="#000000">Databases (n = 148):</text>
          <text text-anchor="middle" x="176.5" y="-486" font-family="Helvetica,sans-Serif" font-size="12.00" fill="#000000">PubMed (n = 33)</text>
          <text text-anchor="middle" x="176.5" y="-471.6" font-family="Helvetica,sans-Serif" font-size="12.00" fill="#000000">Cochrane Library (n = 2)</text>
          <text text-anchor="middle" x="176.5" y="-457.2" font-family="Helvetica,sans-Serif" font-size="12.00" fill="#000000">EMBASE (n = 23)</text>
          <text text-anchor="middle" x="176.5" y="-442.8" font-family="Helvetica,sans-Serif" font-size="12.00" fill="#000000">MEDLINE (n = 16)</text>
          <text text-anchor="middle" x="176.5" y="-428.4" font-family="Helvetica,sans-Serif" font-size="12.00" fill="#000000">Ovid (n = 35)</text>
          <text text-anchor="middle" x="176.5" y="-414" font-family="Helvetica,sans-Serif" font-size="12.00" fill="#000000">Web of Science (n = 39)</text>
        </a>
      </g>
    </g>
    <!-- 5 -->
    <g id="node6" class="node">
      <title>5</title>
      <g id="a_node6">
        <a xlink:title="Duplicate records">
          <polygon fill="none" stroke="#000000" points="590.5,-486.3005 338.5,-486.3005 338.5,-449.6995 590.5,-449.6995 590.5,-486.3005"/>
          <text text-anchor="middle" x="464.5" y="-471.6" font-family="Helvetica,sans-Serif" font-size="12.00" fill="#000000">Records removed before screening:</text>
          <text text-anchor="middle" x="464.5" y="-457.2" font-family="Helvetica,sans-Serif" font-size="12.00" fill="#000000">Duplicate records (n = 54)</text>
        </a>
      </g>
    </g>
    <!-- 6 -->
    <g id="node7" class="node">
      <title>6</title>
      <g id="a_node7">
        <a xlink:title="Records screened (databases and registers)">
          <polygon fill="none" stroke="#000000" points="302.5,-324.3005 50.5,-324.3005 50.5,-287.6995 302.5,-287.6995 302.5,-324.3005"/>
          <text text-anchor="middle" x="176.5" y="-309.6" font-family="Helvetica,sans-Serif" font-size="12.00" fill="#000000">Records screened</text>
          <text text-anchor="middle" x="176.5" y="-295.2" font-family="Helvetica,sans-Serif" font-size="12.00" fill="#000000">(n = 94)</text>
        </a>
      </g>
    </g>
    <!-- 7 -->
    <g id="node8" class="node">
      <title>7</title>
      <g id="a_node8">
        <a xlink:title="Records excluded (databases and registers)">
          <polygon fill="none" stroke="#000000" points="590.5,-324.3005 338.5,-324.3005 338.5,-287.6995 590.5,-287.6995 590.5,-324.3005"/>
          <text text-anchor="middle" x="464.5" y="-309.6" font-family="Helvetica,sans-Serif" font-size="12.00" fill="#000000">Records excluded</text>
          <text text-anchor="middle" x="464.5" y="-295.2" font-family="Helvetica,sans-Serif" font-size="12.00" fill="#000000">(n = 76)</text>
        </a>
      </g>
    </g>
    <!-- 8 -->
    <g id="node9" class="node">
      <title>8</title>
      <g id="a_node9">
        <a xlink:title="Reports sought for retrieval (databases and registers)">
          <polygon fill="none" stroke="#000000" points="302.5,-252.3005 50.5,-252.3005 50.5,-215.6995 302.5,-215.6995 302.5,-252.3005"/>
          <text text-anchor="middle" x="176.5" y="-237.6" font-family="Helvetica,sans-Serif" font-size="12.00" fill="#000000">Reports sought for retrieval</text>
          <text text-anchor="middle" x="176.5" y="-223.2" font-family="Helvetica,sans-Serif" font-size="12.00" fill="#000000">(n = 17)</text>
        </a>
      </g>
    </g>
    <!-- 9 -->
    <g id="node10" class="node">
      <title>9</title>
      <g id="a_node10">
        <a xlink:title="Reports not retrieved (databases and registers)">
          <polygon fill="none" stroke="#000000" points="590.5,-252.3005 338.5,-252.3005 338.5,-215.6995 590.5,-215.6995 590.5,-252.3005"/>
          <text text-anchor="middle" x="464.5" y="-237.6" font-family="Helvetica,sans-Serif" font-size="12.00" fill="#000000">Reports not retrieved</text>
          <text text-anchor="middle" x="464.5" y="-223.2" font-family="Helvetica,sans-Serif" font-size="12.00" fill="#000000">(n = 0)</text>
        </a>
      </g>
    </g>
    <!-- 10 -->
    <g id="node11" class="node">
      <title>10</title>
      <g id="a_node11">
        <a xlink:title="Reports assessed for eligibility (databases and registers)">
          <polygon fill="none" stroke="#000000" points="302.5,-171.3005 50.5,-171.3005 50.5,-134.6995 302.5,-134.6995 302.5,-171.3005"/>
          <text text-anchor="middle" x="176.5" y="-156.6" font-family="Helvetica,sans-Serif" font-size="12.00" fill="#000000">Reports assessed for eligibility</text>
          <text text-anchor="middle" x="176.5" y="-142.2" font-family="Helvetica,sans-Serif" font-size="12.00" fill="#000000">(n = 17)</text>
        </a>
      </g>
    </g>
    <!-- 11 -->
    <g id="node12" class="node">
      <title>11</title>
      <g id="a_node12">
        <a xlink:title="Reports excluded (databases and registers)">
          <polygon fill="#ffffff" stroke="#000000" points="590.5,-178.7004 338.5,-178.7004 338.5,-127.2996 590.5,-127.2996 590.5,-178.7004"/>
          <text text-anchor="middle" x="464.5" y="-163.8" font-family="Helvetica,sans-Serif" font-size="12.00" fill="#000000">Reports excluded:</text>
          <text text-anchor="middle" x="464.5" y="-149.4" font-family="Helvetica,sans-Serif" font-size="12.00" fill="#000000">No gland involvement (n = 8)</text>
          <text text-anchor="middle" x="464.5" y="-135" font-family="Helvetica,sans-Serif" font-size="12.00" fill="#000000">No patient level data (n = 1)</text>
        </a>
      </g>
    </g>
    <!-- 12 -->
    <g id="node13" class="node">
      <title>12</title>
      <g id="a_node13">
        <a xlink:title="New studies included in review">
          <polygon fill="none" stroke="#000000" points="302.5,-54.3005 50.5,-54.3005 50.5,-17.6995 302.5,-17.6995 302.5,-54.3005"/>
          <text text-anchor="middle" x="176.5" y="-39.6" font-family="Helvetica,sans-Serif" font-size="12.00" fill="#000000">Reports of new included studies</text>
          <text text-anchor="middle" x="176.5" y="-25.2" font-family="Helvetica,sans-Serif" font-size="12.00" fill="#000000">(n = 8)</text>
        </a>
      </g>
    </g>
    <!-- C -->
  </g>
</svg>
